<?xml version="1.0" standalone="no"?>
<!DOCTYPE svg PUBLIC "-//W3C//DTD SVG 20010904//EN"
 "http://www.w3.org/TR/2001/REC-SVG-20010904/DTD/svg10.dtd">
<svg version="1.0" xmlns="http://www.w3.org/2000/svg"
 width="1000.000000pt" height="1000.000000pt" viewBox="0 0 1000.000000 1000.000000"
 preserveAspectRatio="xMidYMid meet">
<metadata>
Created by potrace 1.14, written by Peter Selinger 2001-2017
</metadata>
<g transform="translate(0.000000,1000.000000) scale(0.100000,-0.100000)"
fill="#000000" stroke="none">
<path d="M5588 9975 c-2 -2 -39 -5 -83 -9 -44 -3 -93 -8 -110 -11 -54 -9 -89
-15 -130 -20 -63 -10 -279 -66 -292 -77 -7 -6 -13 -8 -13 -5 0 5 -131 -40
-200 -69 -117 -50 -337 -168 -433 -232 -107 -71 -208 -149 -215 -164 -2 -5 -8
-8 -13 -8 -5 0 -24 -15 -42 -32 -19 -18 -47 -45 -63 -59 -92 -82 -266 -284
-344 -399 -8 -12 -27 -39 -41 -59 -14 -20 -32 -51 -40 -68 -7 -18 -17 -33 -21
-33 -5 0 -8 -7 -8 -15 0 -8 -5 -15 -12 -15 -6 0 -9 -3 -5 -6 3 -3 -4 -23 -17
-43 -28 -45 -80 -153 -78 -163 1 -5 -2 -8 -8 -8 -6 0 -9 -3 -8 -7 1 -5 -6 -25
-15 -47 -9 -21 -17 -44 -17 -50 0 -7 -4 -16 -9 -21 -11 -12 -68 -183 -77 -231
-3 -19 -10 -37 -15 -40 -5 -3 -7 -9 -4 -13 2 -5 0 -23 -6 -42 -6 -19 -12 -45
-13 -59 -2 -14 -6 -34 -9 -45 -6 -19 -15 -75 -23 -135 -12 -98 -17 -157 -19
-236 -1 -49 -4 -95 -8 -101 -4 -5 -3 -13 0 -17 4 -3 8 -41 9 -84 3 -119 13
-219 30 -307 3 -16 7 -46 10 -65 2 -19 7 -42 10 -50 3 -8 8 -26 10 -40 5 -29
28 -111 55 -195 11 -33 21 -67 24 -75 25 -85 138 -336 176 -391 10 -14 16 -28
14 -31 -3 -3 4 -13 15 -23 11 -10 20 -23 20 -29 0 -17 149 -231 195 -281 11
-11 32 -37 46 -56 45 -59 251 -261 325 -318 78 -61 208 -153 228 -162 14 -7
26 -16 26 -21 0 -5 4 -7 9 -4 5 4 11 3 13 -2 1 -4 38 -27 81 -52 42 -24 77
-46 76 -49 0 -3 -35 -32 -77 -63 -76 -56 -173 -140 -261 -229 -64 -63 -195
-209 -200 -221 -2 -5 -15 -22 -30 -38 -14 -15 -37 -42 -50 -59 -13 -17 -27
-28 -33 -25 -5 3 -7 8 -4 11 3 3 -1 18 -8 32 -20 38 -28 59 -203 511 -24 63
-56 142 -71 175 -29 64 -109 151 -164 180 -41 21 -170 56 -162 44 3 -5 -5 -6
-18 -1 -13 4 -34 7 -48 6 -89 -7 -553 -33 -690 -39 -36 -1 -114 -5 -175 -9
-60 -4 -153 -9 -205 -11 -52 -3 -105 -7 -117 -9 -13 -3 -23 0 -23 5 0 6 -6 7
-12 2 -7 -4 -31 -8 -53 -9 -22 -2 -96 -5 -165 -9 -69 -3 -156 -8 -195 -10 -38
-2 -119 -6 -180 -9 -60 -4 -148 -8 -195 -10 -109 -6 -149 -13 -180 -33 -31
-21 -78 -72 -86 -95 -3 -10 -10 -18 -15 -18 -5 0 -9 -7 -9 -15 0 -8 -4 -15 -9
-15 -10 0 -25 -73 -22 -110 2 -27 1 -25 59 -150 21 -47 46 -101 55 -120 8 -19
36 -79 61 -133 25 -55 46 -100 46 -102 0 -2 18 -41 40 -88 22 -46 40 -88 40
-94 0 -5 5 -14 12 -21 6 -6 13 -17 14 -24 1 -7 19 -49 40 -93 21 -44 37 -83
36 -87 -1 -5 2 -8 8 -8 6 0 9 -3 8 -7 -1 -5 4 -19 9 -33 19 -44 113 -244 123
-262 6 -10 10 -25 10 -33 0 -8 5 -15 10 -15 6 0 10 -4 10 -10 0 -9 37 -95 120
-275 17 -38 43 -95 57 -125 13 -30 35 -75 47 -100 22 -44 22 -46 6 -76 -25
-43 -31 -80 -31 -176 -1 -123 15 -198 61 -288 40 -78 78 -124 156 -190 77 -64
238 -133 359 -154 17 -3 44 -8 60 -12 50 -11 390 -6 390 6 0 1 14 3 30 5 17 2
41 7 55 11 14 4 30 8 36 9 6 2 33 13 60 25 27 13 52 22 56 22 6 -2 110 99 158
153 10 11 44 26 76 34 97 22 268 83 436 155 21 9 41 16 44 15 4 0 10 3 13 8 3
4 44 27 91 51 l85 43 165 5 c91 3 177 6 193 8 15 2 27 -1 27 -5 0 -5 -5 -9
-10 -9 -35 0 -420 -215 -447 -249 -7 -9 -13 -12 -13 -7 -1 27 -270 -285 -270
-313 0 -5 -4 -11 -8 -13 -5 -1 -41 -48 -80 -103 -39 -55 -75 -105 -80 -111 -5
-6 -27 -37 -48 -70 -22 -32 -44 -65 -51 -72 -7 -7 -49 -66 -94 -132 l-81 -119
-52 21 c-127 52 -199 68 -314 73 -75 3 -196 -17 -219 -36 -7 -6 -13 -9 -13 -5
0 4 -26 -10 -57 -30 -72 -44 -181 -156 -233 -238 -22 -33 -43 -65 -48 -71 -4
-5 -9 -13 -10 -18 -1 -4 -14 -31 -29 -60 -15 -28 -28 -54 -28 -57 -1 -3 -6
-16 -12 -30 -6 -14 -10 -27 -10 -30 0 -3 -6 -16 -13 -30 -8 -14 -15 -32 -17
-40 -19 -94 4 -164 79 -232 29 -26 57 -48 61 -48 5 0 15 -7 23 -15 9 -8 46
-36 82 -62 37 -26 69 -51 70 -55 2 -5 9 -8 16 -8 7 0 21 -8 32 -18 10 -9 31
-23 46 -31 16 -8 28 -18 28 -23 0 -4 5 -8 10 -8 6 0 47 -23 91 -50 44 -27 85
-50 90 -50 5 0 9 -5 9 -12 0 -6 3 -8 6 -5 4 4 19 -2 33 -12 31 -22 309 -164
401 -205 36 -15 84 -37 107 -47 24 -10 45 -19 48 -19 2 0 28 -10 57 -23 224
-99 289 -111 372 -72 36 17 116 103 116 124 0 6 4 11 8 11 4 0 16 13 25 30 20
32 180 268 197 287 5 7 10 16 10 22 0 5 3 11 8 13 11 4 82 106 82 117 0 5 3
11 8 13 7 3 20 21 93 128 24 36 47 67 51 68 5 2 8 8 8 13 0 9 47 78 80 116 5
7 10 15 10 18 0 3 16 27 36 55 33 45 42 51 107 70 40 12 86 26 102 31 17 6 41
13 55 15 14 2 36 9 50 14 20 8 118 33 246 65 37 10 189 44 195 44 3 1 3 -20
-1 -47 -6 -53 -5 -144 5 -212 5 -37 21 -128 24 -137 2 -6 4 -13 15 -68 1 -5 4
-14 8 -20 5 -9 20 -68 19 -80 0 -2 18 -46 40 -97 23 -51 42 -99 43 -106 1 -7
8 -18 14 -24 7 -7 12 -19 12 -28 0 -9 5 -21 10 -26 13 -13 59 -93 67 -116 3
-10 9 -18 14 -18 5 0 9 -6 9 -13 0 -8 9 -22 20 -32 11 -10 20 -22 20 -27 0 -5
6 -15 13 -22 6 -7 23 -28 37 -47 35 -47 153 -177 163 -178 4 -1 18 -10 30 -22
64 -61 210 -143 272 -153 17 -2 30 -5 30 -6 0 -6 60 -11 148 -13 53 -2 97 0
97 4 0 3 8 6 18 6 78 -3 260 95 340 183 51 56 59 67 92 112 18 27 37 48 42 48
4 0 8 4 8 10 0 10 200 273 212 278 5 2 8 10 8 17 0 7 4 15 8 17 4 2 30 32 57
68 27 36 52 67 55 70 3 3 14 19 24 35 11 17 25 34 33 38 7 4 13 15 13 22 0 8
4 15 8 15 5 0 29 28 54 63 131 178 146 194 208 222 22 10 40 22 40 27 0 4 5 8
11 8 11 0 126 81 175 123 72 61 174 170 219 233 30 42 55 65 64 60 10 -7 179
38 251 66 106 41 288 143 353 198 127 107 180 162 297 307 29 36 76 162 86
233 7 45 8 379 2 523 -2 42 0 77 4 77 16 0 128 120 148 159 28 56 29 89 4 406
-2 33 -6 87 -8 120 -4 58 -13 144 -21 215 -3 19 -7 55 -10 80 -5 40 -22 139
-39 225 -43 207 -136 367 -232 395 -39 12 -42 15 -53 64 -6 28 -20 89 -31 136
-11 47 -23 94 -25 106 -3 12 -11 40 -20 63 -8 23 -14 44 -14 46 0 3 -8 31 -17
63 -10 31 -17 60 -16 65 1 4 -2 7 -6 7 -4 0 -8 8 -9 18 -2 19 -76 201 -101
247 -87 158 -248 264 -502 332 -30 8 -71 19 -90 24 -19 5 -48 12 -65 14 -16 3
-40 7 -52 10 -13 3 -33 7 -44 10 -31 6 -33 11 -12 32 15 15 129 181 170 249 7
10 36 66 65 124 29 58 57 108 61 111 5 3 9 10 9 15 1 12 8 34 18 59 5 11 16
36 24 55 8 19 28 51 45 70 17 19 31 38 31 42 0 4 7 13 14 21 27 27 124 227
111 227 -3 0 0 12 6 28 15 38 25 80 35 151 8 59 9 307 1 346 -3 17 -9 52 -13
79 -3 27 -19 88 -36 135 -16 47 -36 124 -44 171 -8 47 -17 96 -20 110 -3 14
-7 37 -9 52 -2 15 -9 46 -16 70 -6 24 -12 48 -14 53 -33 148 -120 371 -211
545 -49 92 -195 326 -213 340 -4 3 -22 25 -41 50 -19 25 -46 58 -60 75 -46 55
-235 241 -295 291 -33 27 -62 52 -65 55 -7 7 -179 127 -227 158 -40 25 -333
178 -345 180 -13 2 -42 13 -73 26 -27 12 -190 67 -207 71 -5 1 -9 2 -10 4 -2
1 -10 3 -18 5 -8 2 -54 13 -102 24 -47 11 -101 23 -120 26 -18 3 -46 8 -63 11
-16 3 -48 8 -70 10 -22 2 -60 6 -85 9 -43 6 -367 14 -372 10z"/>
</g>
</svg>
